<?xml version="1.0" encoding="UTF-8"?>
<svg xmlns="http://www.w3.org/2000/svg" viewBox="0 467 100 33">
  <defs>
    <style>
      .cls-5 { fill: #fff; }
      .cls-8 { fill: #fbbf26; }
      .cls-7 { fill: #d80f23; }
      .cls-9 { fill: #016948; }
    </style>
  </defs>
  <!-- Petit logo mark -->
  <path class="cls-9" d="M13.55,486.9l-2.28-3.23.49,1.73c1-3.74,1.82-6.34,2.89-10.48h-1.15l-2.4,6.88h-.06l-2.34-6.88h-1.13c.42,2.66.57,5.28.35,7.86l.94,2.55-3.29,8.92h3.25l1.9-5.45h.06l.16.49,2.37,6.94h3.67l-3.44-9.32Z"/>
  <path class="cls-8" d="M7.56,471.01c0-2.04,1.62-3.58,3.72-3.56,2.95.04,5.14,3.42,2.56,6.3-3.06,2.13-6.29.09-6.28-2.75Z"/>
  <path class="cls-7" d="M15.33,471.67l-.13,1.09c-.19.72-.37,1.44-.55,2.15-1.06,4.14-1.88,6.75-2.89,10.48-.13.48-.27.98-.4,1.5-.03.11-.06.22-.08.32l-.55,1.57v.03s0-.03,0-.03l-2.13,7.43h-4.06l2.8-8.6.58-4.84c.21-2.58.07-5.2-.35-7.86-.17-1.08-.39-2.15-.65-3.24.35.43.86.86,1.13,1.43.92,2,.64,1.9,1.54,2.35.46.23.97.34,1.48.32.66-.03,1.27-.24,1.77-.61.75-.53.51-.38,1.66-2.13,0-.01.83-1.35.84-1.36Z"/>
  <!-- STATIX en blanc -->
  <path class="cls-5" d="M24.12,495.79c-1.07-1.14-1.61-2.78-1.61-4.91v-1.51h4.07v1.81c0,1.71.74,2.56,2.23,2.56.73,0,1.29-.21,1.66-.62.38-.41.57-1.09.57-2.01,0-1.1-.26-2.08-.78-2.92-.52-.84-1.49-1.85-2.9-3.03-1.78-1.51-3.01-2.87-3.72-4.09-.7-1.22-1.06-2.59-1.06-4.12,0-2.08.55-3.7,1.64-4.84,1.1-1.14,2.69-1.71,4.78-1.71s3.62.57,4.68,1.71c1.06,1.14,1.59,2.78,1.59,4.91v1.09h-4.07v-1.36c0-.9-.18-1.56-.55-1.98-.37-.41-.9-.62-1.61-.62-1.44,0-2.15.84-2.15,2.52,0,.95.27,1.84.8,2.67.53.83,1.51,1.83,2.92,3.01,1.8,1.51,3.04,2.87,3.72,4.1.68,1.23,1.02,2.67,1.02,4.33,0,2.16-.56,3.82-1.66,4.97-1.11,1.15-2.72,1.73-4.83,1.73s-3.67-.57-4.74-1.71Z"/>
  <path class="cls-5" d="M40.68,474.53h-4.5v-3.77h13.31v3.77h-4.5v22.6h-4.31v-22.6Z"/>
  <path class="cls-5" d="M52.58,470.77h5.83l4.46,26.36h-4.31l-.78-5.23v.08h-4.89l-.78,5.16h-3.99l4.46-26.36ZM57.28,488.39l-1.92-13.03h-.08l-1.88,13.03h3.88Z"/>
  <path class="cls-5" d="M66.01,474.53h-4.5v-3.77h13.31v3.77h-4.5v22.6h-4.31v-22.6Z"/>
  <path class="cls-5" d="M76.38,470.77h4.31v26.36h-4.31v-26.36Z"/>
  <path class="cls-5" d="M87.18,483.65l-4.74-12.88h4.54l2.9,8.51h.08l2.97-8.51h4.07l-4.74,12.88,4.97,13.48h-4.54l-3.13-9.19h-.08l-3.21,9.19h-4.07l4.97-13.48Z"/>
</svg>
